<svg xmlns="http://www.w3.org/2000/svg" viewBox="0 0 30 30"><defs><style></style></defs><title>Click Me</title><g class="arrowkey-key"><path class="key-fill" d="M1,4.07a4.92,4.92,0,0,1,.07-.92,2.84,2.84,0,0,1,.21-.66,2.79,2.79,0,0,1,.42-.61,2.59,2.59,0,0,1,.57-.5A2.54,2.54,0,0,1,3,1.12,4.6,4.6,0,0,1,3.85,1H25.23a13.56,13.56,0,0,1,1.63.09,2.17,2.17,0,0,1,1.36.76,2.67,2.67,0,0,1,.67,1.3A10,10,0,0,1,29,4.68V25.32a13.89,13.89,0,0,1-.08,1.53,2.4,2.4,0,0,1-.65,1.3A2.06,2.06,0,0,1,27,28.9a11,11,0,0,1-1.6.1H3.88a3.94,3.94,0,0,1-.77-.07,2.85,2.85,0,0,1-.71-.25,2.51,2.51,0,0,1-.65-.51,2.47,2.47,0,0,1-.67-1.35A15.7,15.7,0,0,1,1,25.17V4.07ZM4.91,1.53l-1,0a5.33,5.33,0,0,0-.75.07,1.73,1.73,0,0,0-.6.22,2.52,2.52,0,0,0-.52.43,2.13,2.13,0,0,0-.47,1.16A15.93,15.93,0,0,0,1.5,5.36V25.17a10.91,10.91,0,0,0,.09,1.44,2,2,0,0,0,.56,1.18l2.43-2.65a1.41,1.41,0,0,1-.49-1A10.69,10.69,0,0,1,4,22.9v-16c0-.4,0-.77.05-1.11a1.56,1.56,0,0,1,.48-.93,1.48,1.48,0,0,1,1-.44l1.06,0h16.6a9.48,9.48,0,0,1,1.1.06,1.62,1.62,0,0,1,.91.41l2.51-2.59a1.69,1.69,0,0,0-1-.55A7.34,7.34,0,0,0,25,1.53ZM4.62,24a1.36,1.36,0,0,0,.32.79,1.18,1.18,0,0,0,.74.36,9,9,0,0,0,.94.05H23.3l.88,0a1.21,1.21,0,0,0,.77-.39,1.2,1.2,0,0,0,.42-.8c0-.3,0-.62,0-1V7.16a6.67,6.67,0,0,0-.05-.94,1.58,1.58,0,0,0-.39-.8A1.26,1.26,0,0,0,24.21,5a6.32,6.32,0,0,0-.91-.06H9.63a10.3,10.3,0,0,0-2.1.19,3.35,3.35,0,0,0-1.75,1,4,4,0,0,0-1,1.72A8.77,8.77,0,0,0,4.58,10V23C4.58,23.37,4.59,23.7,4.62,24Z"/></g><g class="arrowkey-arrow"><polygon class="arrow-fill" points="7.5 22.5 7.5 20.5 18.84 15.03 7.5 9.56 7.5 7.5 22.5 15.03 7.5 22.5"/></g></svg>