<svg xmlns="http://www.w3.org/2000/svg" xmlns:xlink="http://www.w3.org/1999/xlink" viewBox="0 0 1000 145">
    <defs>
        <style>
            .ps-svg-shadow {
                fill: none;
                stroke: #808285;
                stroke-width: 2px;
            }

            .pslogo-gradient {
                stroke-width: 2px;
                stroke: #fff;
                fill: url(#linear-gradient);
            }
        </style>

        






        <linearGradient id="linear-gradient" x1="55.26" y1="50.64" x2="55.43" y2="112.33" gradientUnits="userSpaceOnUse">
            <stop offset="0" stop-color="#292d73">
                <animate attributeName="stop-color" values="#292d73; #333e8a; #3b4c9c; #3e51a3; #3a4999; #2e357e; #292d73" dur="4s" repeatCount="indefinite"></animate>
            </stop>
            <stop offset="0.17" stop-color="#333e8a">
                <animate attributeName="stop-color" values="#333e8a; #292d73; #333e8a; #3b4c9c; #3e51a3; #3a4999; #2e357e" dur="4s" repeatCount="indefinite"></animate>
            </stop>
            <stop offset="0.37" stop-color="#3b4c9c">
                <animate attributeName="stop-color" values="#3b4c9c; #333e8a; #292d73; #333e8a; #3b4c9c; #3e51a3; #3a49999" dur="4s" repeatCount="indefinite"></animate>
            </stop>
            <stop offset="0.51" stop-color="#3e51a3">
                <animate attributeName="stop-color" values="#3e51a3; #3b4c9c; #333e8a; #292d73; #333e8a; #3b4c9c; #3e51a3" dur="4s" repeatCount="indefinite"></animate>
            </stop>
            <stop offset="0.66" stop-color="#3a4999">
                <animate attributeName="stop-color" values="#3a4999; #3e51a3; #3b4c9c; #333e8a; #292d73; #333e8a; #3b4c9c" dur="4s" repeatCount="indefinite"></animate>
            </stop>
            <stop offset="0.91" stop-color="#2e357e">
                <animate attributeName="stop-color" values="#2e357e; #3a4999; #3e51a3; #3b4c9c; #333e8a; #292d73; #333e8a" dur="4s" repeatCount="indefinite"></animate>
            </stop>
            <stop offset="1" stop-color="#292d73">
                <animate attributeName="stop-color" values="#292d73; #2e357e; #3a4999; #3e51a3; #3b4c9c; #333e8a; #292d73" dur="4s" repeatCount="indefinite"></animate>
            </stop>
        </linearGradient>
    </defs>
    <title>Powersimple, LLC Logo</title>
    <g id="drop-shadow">
        <path class="ps-svg-shadow" d="M60.84,51.55H31.68a59.6,59.6,0,0,1-.33,6c-.41,1.49-1.28,4.17-2.7,8L6.57,122.94H39.7a25.91,25.91,0,0,1,.2-5.89,61.5,61.5,0,0,1,2.76-8L46,100.2c-.75,3.16,1.48,4.7,6.73,4.7h23a24.39,24.39,0,0,0,13.74-4,23.33,23.33,0,0,0,8.62-11.08l8.68-22.33c.2-.77.47-1.55.67-2.32l.47-2.8a8.38,8.38,0,0,0-1.21-6.67A7.14,7.14,0,0,0,103.12,53c-2.16-.95-5.39-1.43-9.77-1.43H73.22a23.15,23.15,0,0,0-8.68,1A8,8,0,0,0,60,56.2l.88-4.65ZM58.41,68.11a7.91,7.91,0,0,1,2.49-3.75,6.51,6.51,0,0,1,4.11-1h7.68a9.32,9.32,0,0,1,2.62.24,2.44,2.44,0,0,1,1.15,1.07,1.16,1.16,0,0,1,.27.9,17.46,17.46,0,0,0-1,2.91l-7.34,19a13.3,13.3,0,0,1-2.76,4.76,8.9,8.9,0,0,1-4.72,1H54.58a10.73,10.73,0,0,1-3.3-.35,2.16,2.16,0,0,1-1-.6c-.6-.71-.6-1.9,0-3.63l8.08-20.54Z"
        />
        <path class="ps-svg-shadow" d="M144.46,51.44a57.25,57.25,0,0,0-8.35.41,24.43,24.43,0,0,0-6.53,2.32,22.51,22.51,0,0,0-11.79,12.57l-8.34,21.79c-2.09,5.36-2.09,9.47.13,12.27a14.15,14.15,0,0,0,2,1.84,9,9,0,0,0,3.5,1.55c2,.42,5.79.6,11.51.65h36.63q20.7.81,26.46-14.58l8.35-21.5a39.05,39.05,0,0,0,1.81-8.1,7.31,7.31,0,0,0-1.48-4.94,9.48,9.48,0,0,0-6-3.51,51.35,51.35,0,0,0-10.57-.77ZM167.89,67a17.26,17.26,0,0,1-.61,1.66L160,87.7A11.56,11.56,0,0,1,157.25,92a9.78,9.78,0,0,1-4.85,1H143c-1.68-.18-2.69-.48-3.16-1-.54-.71-.34-2.08.54-4.05l7.27-19.11c1.41-3.81,4-5.71,7.74-5.65h7.27c2.56-.06,4.17.29,4.92,1.13a3.89,3.89,0,0,1,.27,2.68Z"
        />
        <path class="ps-svg-shadow" d="M263.29,51.38,243.22,83l2.9-18.87a17.31,17.31,0,0,1,1.28-6.37,10.81,10.81,0,0,1,1.28-2.68A29.3,29.3,0,0,1,251,51.38H213.87a47.49,47.49,0,0,0,.54,5.59c.13,1.19.27,2.32.33,3.34l-4.64,44.47h31.1l25.52-39.47-4.44,39.47h31L320.78,63.7A44.06,44.06,0,0,1,325.9,57a16.26,16.26,0,0,1,2-1.9c.94-1,2.22-2.27,3.77-3.69H311.49a25.65,25.65,0,0,1-1.41,6.72,36.15,36.15,0,0,1-3.77,7L295.47,83l3.77-31.61Z"
        />
        <path class="ps-svg-shadow" d="M412.48,55.88a8.37,8.37,0,0,0-5-3.63,46.5,46.5,0,0,0-10.37-.89H360.91c-13.74-.42-22.89,5.77-27.54,18.51L327,86.49c-2.36,6.61-2.29,11.43.27,14.35A6.58,6.58,0,0,0,329.8,103a25.78,25.78,0,0,0,2.63,1,65.62,65.62,0,0,0,10.17.83h52.71L403,90.65A48.32,48.32,0,0,1,389.25,93H362.73c-1.28-.06-2.29-.12-3.1-.18-1.48-.18-2.42-.48-2.83-1q-1-1,.61-4.64l1.14-3.16h48L412,69.58A41.19,41.19,0,0,0,413.42,65c.34-1.73.54-3,.61-3.69.34-1.67-.14-3.45-1.55-5.42ZM367.3,63.56a1.21,1.21,0,0,1,.95-.35,19.42,19.42,0,0,1,2.56-.06H380c1.82,0,2.9.23,3.17.65a3.48,3.48,0,0,1-.14,2.14c-.2.54-.4,1.14-.67,1.85l-1.82,4.52H363.13l2-5.47a7.86,7.86,0,0,1,2.15-3.28Z"
        />
        <path class="ps-svg-shadow" d="M476.44,51.89A22.15,22.15,0,0,0,467,53.5a11.56,11.56,0,0,0-3.9,2.08,1.74,1.74,0,0,0-.81.66,4,4,0,0,0-1,1.25l1.82-5.6H433a41.84,41.84,0,0,1-.47,6,82.15,82.15,0,0,1-2.63,8L420,91.49a54.79,54.79,0,0,1-3.43,7.8c-.94,1.54-2.29,3.57-4.11,6h35.42a25.28,25.28,0,0,1,.2-5.84,52.42,52.42,0,0,1,2.76-8l6.46-16.86a9.5,9.5,0,0,1,3.84-5,12.6,12.6,0,0,1,7-1.6h5.66a24.8,24.8,0,0,1,6.8.53A36.77,36.77,0,0,1,485.87,71l7.27-19.11Z"
        />
        <path class="ps-svg-shadow" d="M496.78,71.05h.06a39,39,0,0,0-2.49,7.8c0,2,.47,3.4,1.48,4.17.27.18.61.36.95.6a7.92,7.92,0,0,0,3.36,1.31,49.66,49.66,0,0,0,7.61.41h25.31a9.48,9.48,0,0,1,2.9.24,11,11,0,0,1-.94,2.8,8.92,8.92,0,0,1-2.9,3.93c-1.14.66-3.36,1-6.53,1H499.74q-7.07-.27-9.29-3.21l-5.79,15h51.57a67.1,67.1,0,0,0,10.37-.65A30.17,30.17,0,0,0,555,101.3a15.79,15.79,0,0,0,6.8-6.73A121,121,0,0,0,567.13,80a6.6,6.6,0,0,0,.61-3.34c-.61-3.45-5.79-5-15.49-4.64l-26.86-.3.74-2.2c1-2.56,2-4.11,3-4.71s3.1-1.07,6.19-1.07h24.58a19.45,19.45,0,0,1,10.77,2.92l3.64-14.59H525.59a47.06,47.06,0,0,0-9.89.83,20.32,20.32,0,0,0-7.21,3,32.54,32.54,0,0,0-5.59,4.23,25.72,25.72,0,0,0-4.84,8.16c-.27.53-.54,1-.81,1.43s-.34,1-.47,1.36Z"
        />
        <path class="ps-svg-shadow" d="M589.28,51.44a36.81,36.81,0,0,1-.41,6,83.81,83.81,0,0,1-2.62,8l-9.76,25.48a69.41,69.41,0,0,1-3.57,8,46.62,46.62,0,0,1-4.11,6h35.35a30.27,30.27,0,0,1,.27-6,52.05,52.05,0,0,1,2.76-8l15-39.47Z"
        />
        <polygon class="ps-svg-shadow" points="598.84 34.17 594.33 43.93 625.1 43.93 629.47 34.17 598.84 34.17 598.84 34.17" />
        <path class="ps-svg-shadow" d="M713.43,54c-1.42-.77-4.11-1.13-8.08-1.13H675.86a14,14,0,0,0-6.6,1.37,4,4,0,0,0-1.88,1.43l1.07-2.8H637.62a26.39,26.39,0,0,1-.34,6,66.85,66.85,0,0,1-2.69,7.8l-9.83,25.66a64.15,64.15,0,0,1-3.37,8c-.94,1.49-2.29,3.51-4.1,6h35.34a20.78,20.78,0,0,1,.27-6,52,52,0,0,1,2.76-8l8.75-22.93q1-3,2.23-3.92c.74-.66,2-.9,3.77-.84H679c1.69-.12,2.63.24,3,1a3.52,3.52,0,0,1,.2,1.79c-.2.65-.41,1.55-.74,2.62l-8.69,22.27c-1.55,3.75-2.69,6.37-3.5,8a53.58,53.58,0,0,1-4.37,6h35.54a38.15,38.15,0,0,1,.27-6,65.3,65.3,0,0,1,2.83-8l8.69-22.69c.87-2.32,1.61-3.75,2.35-4.16s2.36-.84,4.72-.84h7.06c2.09-.06,3.3.24,3.64,1a4.55,4.55,0,0,1,.13,1.85c-.2.65-.47,1.61-.87,2.74L720.7,92.38c-1.48,3.87-2.63,6.49-3.37,8-.94,1.49-2.35,3.51-4.31,6h35a24.23,24.23,0,0,1,.2-5.12c.07-.77,1.15-3.69,3.17-8.87l7.67-19.83a38.23,38.23,0,0,0,2.56-9.23,9.76,9.76,0,0,0-1.28-6l-.2-.06a8.49,8.49,0,0,0-4.44-3.4,29.65,29.65,0,0,0-8.69-1H724.33a14.89,14.89,0,0,0-6.73,1.25,6.59,6.59,0,0,0-2.49,2,4.52,4.52,0,0,0-.74,1.55c.13-.66.27-1.2.34-1.61A2.68,2.68,0,0,0,713.43,54Z"
        />
        <path class="ps-svg-shadow" d="M824.18,53.4a28.47,28.47,0,0,0-8.62,1,9.23,9.23,0,0,0-3.16,1.79,7.74,7.74,0,0,0-1.55,1.9l.94-4.7H782.64a36.81,36.81,0,0,1-.41,6,69.55,69.55,0,0,1-2.55,7.8l-22.09,57.58h33a38.29,38.29,0,0,1,.27-6,84.48,84.48,0,0,1,2.83-8l3.37-8.75c-.61,2.14.2,3.57,2.49,4.29a1.47,1.47,0,0,1,.47.06,17.56,17.56,0,0,0,3.57.41H826.8a25.34,25.34,0,0,0,13.74-4.22,23.28,23.28,0,0,0,8.62-11.08l8.61-22.21c1.15-4.94,1.49-8.51,1-10.77a4.68,4.68,0,0,0-4.58-3.81c-1.68-.18-11.72-.6-30-1.37Zm2.09,12a2.67,2.67,0,0,1,1.21,1,4.13,4.13,0,0,1,.06,1,3.33,3.33,0,0,1-.06.59,21.44,21.44,0,0,0-.81,2.27L819.4,89.36a12.68,12.68,0,0,1-2.9,4.58,8.07,8.07,0,0,1-4.57,1.14h-6.47l-1.41-.18a4.43,4.43,0,0,1-2.9-.78c-.47-.71-.4-1.84.21-3.45L809.3,70a9.11,9.11,0,0,1,2.63-3.75,5.53,5.53,0,0,1,4-1h7.75a9.63,9.63,0,0,1,2.56.23Z"
        />
        <path class="ps-svg-shadow" d="M883.63,39.77a55.48,55.48,0,0,1-2.63,8L864.44,91.33c-1.62,3.87-2.83,6.49-3.57,8-.94,1.49-2.36,3.51-4.31,6H892a34.68,34.68,0,0,1,.4-5.95,52.05,52.05,0,0,1,2.76-8l22.08-57.58H884.1a29.45,29.45,0,0,1-.47,6Z"
        />
        <path class="ps-svg-shadow" d="M994.21,51.46a47.91,47.91,0,0,0-10.44-.9H947.55c-13.8-.41-23,5.78-27.53,18.52l-6.47,16.61c-2.49,6.61-2.42,11.43.14,14.35a7.4,7.4,0,0,0,2.62,2.15,24.86,24.86,0,0,0,2.76,1,68,68,0,0,0,10,.83h52.78l7.74-14.17a49.19,49.19,0,0,1-13.73,2.38H949.37c-1.21-.06-2.29-.12-3.16-.18-1.49-.18-2.36-.47-2.7-1-.74-.66-.54-2.2.47-4.64l1.21-3.16H993l5.65-14.53c.54-1.49,1-2.92,1.35-4.17.33-1.54.6-2.91.74-4.1A10.46,10.46,0,0,0,1000,56a.83.83,0,0,1-.2-.36,7.28,7.28,0,0,0-5.59-4.22ZM966.67,62.35c1.82,0,2.83.24,3.1.66a3.53,3.53,0,0,1-.13,2.14c-.21.54-.41,1.13-.68,1.85l-1.82,4.52h-17.5L951.86,66a7.25,7.25,0,0,1,1.95-3.27,1.76,1.76,0,0,1,1-.36,21.79,21.79,0,0,1,2.63-.06Z"
        />
    </g>
    <g id="ps-p1">
        <path class="pslogo-gradient" d="M58.84,49.55H29.68a59.6,59.6,0,0,1-.33,6c-.41,1.49-1.28,4.17-2.7,8L4.57,120.94H37.7a25.91,25.91,0,0,1,.2-5.89,61.5,61.5,0,0,1,2.76-8L44,98.2c-.75,3.16,1.48,4.7,6.73,4.7h23a24.39,24.39,0,0,0,13.74-4,23.33,23.33,0,0,0,8.62-11.08l8.68-22.33c.2-.77.47-1.55.67-2.32l.47-2.8a8.38,8.38,0,0,0-1.21-6.67A7.14,7.14,0,0,0,101.12,51C99,50,95.73,49.55,91.35,49.55H71.22a23.15,23.15,0,0,0-8.68,1A8,8,0,0,0,58,54.2l.88-4.65ZM56.41,66.11a7.91,7.91,0,0,1,2.49-3.75,6.51,6.51,0,0,1,4.11-1h7.68a9.32,9.32,0,0,1,2.62.24,2.44,2.44,0,0,1,1.15,1.07,1.16,1.16,0,0,1,.27.9,17.46,17.46,0,0,0-1,2.91l-7.34,19a13.3,13.3,0,0,1-2.76,4.76,8.9,8.9,0,0,1-4.72,1H52.58a10.73,10.73,0,0,1-3.3-.35,2.16,2.16,0,0,1-1-.6c-.6-.71-.6-1.9,0-3.63l8.08-20.54Z"
        />
    </g>
    <g id="ps-o1">
        <path class="pslogo-gradient" d="M142.46,49.44a57.25,57.25,0,0,0-8.35.41,24.43,24.43,0,0,0-6.53,2.32,22.51,22.51,0,0,0-11.79,12.57l-8.34,21.79c-2.09,5.36-2.09,9.47.13,12.27a14.15,14.15,0,0,0,2,1.84,9,9,0,0,0,3.5,1.55c2,.42,5.79.6,11.51.65h36.63q20.7.81,26.46-14.58l8.35-21.5a39.05,39.05,0,0,0,1.81-8.1,7.31,7.31,0,0,0-1.48-4.94,9.48,9.48,0,0,0-6-3.51,51.35,51.35,0,0,0-10.57-.77ZM165.89,65a17.26,17.26,0,0,1-.61,1.66L158,85.7A11.56,11.56,0,0,1,155.25,90a9.78,9.78,0,0,1-4.85,1H141c-1.68-.18-2.69-.48-3.16-1-.54-.71-.34-2.08.54-4.05l7.27-19.11c1.41-3.81,4-5.71,7.74-5.65h7.27c2.56-.06,4.17.29,4.92,1.13a3.89,3.89,0,0,1,.27,2.68Z"
        />
    </g>
    <g id="ps-w1">
        <path class="pslogo-gradient" d="M261.29,49.38,241.22,81l2.9-18.87a17.31,17.31,0,0,1,1.28-6.37,10.81,10.81,0,0,1,1.28-2.68A29.3,29.3,0,0,1,249,49.38H211.87a47.49,47.49,0,0,0,.54,5.59c.13,1.19.27,2.32.33,3.34l-4.64,44.47h31.1l25.52-39.47-4.44,39.47h31L318.78,61.7A44.06,44.06,0,0,1,323.9,55a16.26,16.26,0,0,1,2-1.9c.94-1,2.22-2.27,3.77-3.69H309.49a25.65,25.65,0,0,1-1.41,6.72,36.15,36.15,0,0,1-3.77,7L293.47,81l3.77-31.61Z"
        />
    </g>
    <g id="ps-e1">
        <path class="pslogo-gradient" d="M410.48,53.88a8.37,8.37,0,0,0-5-3.63,46.5,46.5,0,0,0-10.37-.89H358.91c-13.74-.42-22.89,5.77-27.54,18.51L325,84.49c-2.36,6.61-2.29,11.43.27,14.35A6.58,6.58,0,0,0,327.8,101a25.78,25.78,0,0,0,2.63,1,65.62,65.62,0,0,0,10.17.83h52.71L401,88.65A48.32,48.32,0,0,1,387.25,91H360.73c-1.28-.06-2.29-.12-3.1-.18-1.48-.18-2.42-.48-2.83-1q-1-1,.61-4.64l1.14-3.16h48L410,67.58A41.19,41.19,0,0,0,411.42,63c.34-1.73.54-3,.61-3.69.34-1.67-.14-3.45-1.55-5.42ZM365.3,61.56a1.21,1.21,0,0,1,.95-.35,19.42,19.42,0,0,1,2.56-.06H378c1.82,0,2.9.23,3.17.65a3.48,3.48,0,0,1-.14,2.14c-.2.54-.4,1.14-.67,1.85l-1.82,4.52H361.13l2-5.47a7.86,7.86,0,0,1,2.15-3.28Z"
        />
    </g>
    <g id="ps-r1">
        <path class="pslogo-gradient" d="M474.44,49.89A22.15,22.15,0,0,0,465,51.5a11.56,11.56,0,0,0-3.9,2.08,1.74,1.74,0,0,0-.81.66,4,4,0,0,0-1,1.25l1.82-5.6H431a41.84,41.84,0,0,1-.47,6,82.15,82.15,0,0,1-2.63,8L418,89.49a54.79,54.79,0,0,1-3.43,7.8c-.94,1.54-2.29,3.57-4.11,6h35.42a25.28,25.28,0,0,1,.2-5.84,52.42,52.42,0,0,1,2.76-8l6.46-16.86a9.5,9.5,0,0,1,3.84-5,12.6,12.6,0,0,1,7-1.6h5.66a24.8,24.8,0,0,1,6.8.53A36.77,36.77,0,0,1,483.87,69l7.27-19.11Z"
        />
    </g>
    <g id="ps-s1">
        <path class="pslogo-gradient" d="M494.78,69.05h.06a39,39,0,0,0-2.49,7.8c0,2,.47,3.4,1.48,4.17.27.18.61.36.95.6a7.92,7.92,0,0,0,3.36,1.31,49.66,49.66,0,0,0,7.61.41h25.31a9.48,9.48,0,0,1,2.9.24,11,11,0,0,1-.94,2.8,8.92,8.92,0,0,1-2.9,3.93c-1.14.66-3.36,1-6.53,1H497.74q-7.07-.27-9.29-3.21l-5.79,15h51.57a67.1,67.1,0,0,0,10.37-.65A30.17,30.17,0,0,0,553,99.3a15.79,15.79,0,0,0,6.8-6.73A121,121,0,0,0,565.13,78a6.6,6.6,0,0,0,.61-3.34c-.61-3.45-5.79-5-15.49-4.64l-26.86-.3.74-2.2c1-2.56,2-4.11,3-4.71s3.1-1.07,6.19-1.07h24.58a19.45,19.45,0,0,1,10.77,2.92l3.64-14.59H523.59a47.06,47.06,0,0,0-9.89.83,20.32,20.32,0,0,0-7.21,3,32.54,32.54,0,0,0-5.59,4.23,25.72,25.72,0,0,0-4.84,8.16c-.27.53-.54,1-.81,1.43s-.34,1-.47,1.36Z"
        />
    </g>
    <g id="ps-i1">
        <path class="pslogo-gradient" d="M587.28,49.44a36.81,36.81,0,0,1-.41,6,83.81,83.81,0,0,1-2.62,8l-9.76,25.48a69.41,69.41,0,0,1-3.57,8,46.62,46.62,0,0,1-4.11,6h35.35a30.27,30.27,0,0,1,.27-6,52.05,52.05,0,0,1,2.76-8l15-39.47Z"
        />
        <polygon class="pslogo-gradient" points="596.84 32.17 592.33 41.93 623.1 41.93 627.47 32.17 596.84 32.17 596.84 32.17" />
    </g>
    <g id="ps-m1">
        <path class="pslogo-gradient" d="M711.43,52c-1.42-.77-4.11-1.13-8.08-1.13H673.86a14,14,0,0,0-6.6,1.37,4,4,0,0,0-1.88,1.43l1.07-2.8H635.62a26.39,26.39,0,0,1-.34,6,66.85,66.85,0,0,1-2.69,7.8l-9.83,25.66a64.15,64.15,0,0,1-3.37,8c-.94,1.49-2.29,3.51-4.1,6h35.34a20.78,20.78,0,0,1,.27-6,52,52,0,0,1,2.76-8l8.75-22.93q1-3,2.23-3.92c.74-.66,2-.9,3.77-.84H677c1.69-.12,2.63.24,3,1a3.52,3.52,0,0,1,.2,1.79c-.2.65-.41,1.55-.74,2.62l-8.69,22.27c-1.55,3.75-2.69,6.37-3.5,8a53.58,53.58,0,0,1-4.37,6h35.54a38.15,38.15,0,0,1,.27-6,65.3,65.3,0,0,1,2.83-8l8.69-22.69c.87-2.32,1.61-3.75,2.35-4.16s2.36-.84,4.72-.84h7.06c2.09-.06,3.3.24,3.64,1a4.55,4.55,0,0,1,.13,1.85c-.2.65-.47,1.61-.87,2.74L718.7,90.38c-1.48,3.87-2.63,6.49-3.37,8-.94,1.49-2.35,3.51-4.31,6h35a24.23,24.23,0,0,1,.2-5.12c.07-.77,1.15-3.69,3.17-8.87l7.67-19.83a38.23,38.23,0,0,0,2.56-9.23,9.76,9.76,0,0,0-1.28-6l-.2-.06a8.49,8.49,0,0,0-4.44-3.4,29.65,29.65,0,0,0-8.69-1H722.33a14.89,14.89,0,0,0-6.73,1.25,6.59,6.59,0,0,0-2.49,2,4.52,4.52,0,0,0-.74,1.55c.13-.66.27-1.2.34-1.61A2.68,2.68,0,0,0,711.43,52Z"
        />
    </g>
    <g id="ps-p2">
        <path class="pslogo-gradient" d="M822.18,51.4a28.47,28.47,0,0,0-8.62,1,9.23,9.23,0,0,0-3.16,1.79,7.74,7.74,0,0,0-1.55,1.9l.94-4.7H780.64a36.81,36.81,0,0,1-.41,6,69.55,69.55,0,0,1-2.55,7.8l-22.09,57.58h33a38.29,38.29,0,0,1,.27-6,84.48,84.48,0,0,1,2.83-8l3.37-8.75c-.61,2.14.2,3.57,2.49,4.29a1.47,1.47,0,0,1,.47.06,17.56,17.56,0,0,0,3.57.41H824.8a25.34,25.34,0,0,0,13.74-4.22,23.28,23.28,0,0,0,8.62-11.08l8.61-22.21c1.15-4.94,1.49-8.51,1-10.77a4.68,4.68,0,0,0-4.58-3.81c-1.68-.18-11.72-.6-30-1.37Zm2.09,12a2.67,2.67,0,0,1,1.21,1,4.13,4.13,0,0,1,.06,1,3.33,3.33,0,0,1-.06.59,21.44,21.44,0,0,0-.81,2.27L817.4,87.36a12.68,12.68,0,0,1-2.9,4.58,8.07,8.07,0,0,1-4.57,1.14h-6.47l-1.41-.18a4.43,4.43,0,0,1-2.9-.78c-.47-.71-.4-1.84.21-3.45L807.3,68a9.11,9.11,0,0,1,2.63-3.75,5.53,5.53,0,0,1,4-1h7.75a9.63,9.63,0,0,1,2.56.23Z"
        />
    </g>
    <g id="ps-l1">
        <path class="pslogo-gradient" d="M881.63,37.77a55.48,55.48,0,0,1-2.63,8L862.44,89.33c-1.62,3.87-2.83,6.49-3.57,8-.94,1.49-2.36,3.51-4.31,6H890a34.68,34.68,0,0,1,.4-5.95,52.05,52.05,0,0,1,2.76-8l22.08-57.58H882.1a29.45,29.45,0,0,1-.47,6Z"
        />
    </g>
    <g id="ps-e2">
        <path class="pslogo-gradient" d="M992.21,49.46a47.91,47.91,0,0,0-10.44-.9H945.55c-13.8-.41-23,5.78-27.53,18.52l-6.47,16.61c-2.49,6.61-2.42,11.43.14,14.35a7.4,7.4,0,0,0,2.62,2.15,24.86,24.86,0,0,0,2.76,1,68,68,0,0,0,10,.83h52.78l7.74-14.17a49.19,49.19,0,0,1-13.73,2.38H947.37c-1.21-.06-2.29-.12-3.16-.18-1.49-.18-2.36-.47-2.7-1-.74-.66-.54-2.2.47-4.64l1.21-3.16H991l5.65-14.53c.54-1.49,1-2.92,1.35-4.17.33-1.54.6-2.91.74-4.1A10.46,10.46,0,0,0,998,54a.83.83,0,0,1-.2-.36,7.28,7.28,0,0,0-5.59-4.22ZM964.67,60.35c1.82,0,2.83.24,3.1.66a3.53,3.53,0,0,1-.13,2.14c-.21.54-.41,1.13-.68,1.85l-1.82,4.52h-17.5L949.86,64a7.25,7.25,0,0,1,1.95-3.27,1.76,1.76,0,0,1,1-.36,21.79,21.79,0,0,1,2.63-.06Z"
        />
    </g>
</svg>