<svg id="Spatial-Computing-Circle" xmlns="http://www.w3.org/2000/svg" viewBox="0 0 1000 1000">
    <defs>
        <style>
            #spatial-computing .fill-text{
                fill: #fff;
                stroke:#231f20;
                stroke-miterlimit:10;
            }
            #spatial-computing{
                -webkit-animation: load 20s infinite linear;
                -moz-animation: load 20s infinite linear;
                ms-animation: load 20s infinite linear;
                o-animation: load 20s infinite linear;
                animation: load 20s infinite linear;
                transform-origin: 500px 500px;
            }
            @-webkit-keyframes load {
                0% {
                -webkit-transform: rotate(0deg);
                transform: rotate(0deg);
                }
                100% {
                -webkit-transform: rotate(360deg);
                transform: rotate(360deg);
                }
            }
            
            @keyframes load {
                0% {
                -webkit-transform: rotate(0deg);
                transform: rotate(0deg);
                }
                100% {
                -webkit-transform: rotate(360deg);
                transform: rotate(360deg);
                }
            }
            @-webkit-keyframes breathe {
                0% {
                -webkit-transform: scale(1);
                transform: scale(1);
                }
                50% {
                -webkit-transform: scale(1.1);
                transform: scale(1.1);
                }

                100% {
                -webkit-transform: scale(1);
                transform: scale(1);
                }
            }
            
            @keyframes breathe {
                0% {
                -webkit-transform: scale(1);
                transform: scale(1);
                }
                50% {
                -webkit-transform: scale(1.1);
                transform: scale(1.1);
                }
                100% {
                -webkit-transform: scale(1);
                transform: scale(1);
                }
            }
        </style>

    </defs>
    <g id="spatial-computing">
        <g id="spatial">
            <path id="spatial-s"
                d="M201.52,218.35a32,32,0,0,1,7,6.85,28.75,28.75,0,0,1,4,7.42,24,24,0,0,1,1.43,7.57,32.73,32.73,0,0,1-.62,7.29,31.82,31.82,0,0,1-2.12,6.6,31.1,31.1,0,0,1-3.14,5.49l-41.6,56.93-14.76-10.78,41.6-56.93q3.1-4.26,2.33-8.44a11.64,11.64,0,0,0-5-7.25,13.38,13.38,0,0,0-4.2-2.11,10.9,10.9,0,0,0-4.26-.37,9.84,9.84,0,0,0-4,1.43,12.15,12.15,0,0,0-3.4,3.22l-24.8,33.94a32.35,32.35,0,0,1-6.91,6.79,28.68,28.68,0,0,1-9.74,4.69,27.84,27.84,0,0,1-11.75.47,30.25,30.25,0,0,1-13-5.86,30.06,30.06,0,0,1-9.49-10.55,28,28,0,0,1-1.64-22.05,32.42,32.42,0,0,1,4.36-8.65l36.7-50.24L153.4,194.6l-36.7,50.23a10.5,10.5,0,0,0-2.24,8.42,11.85,11.85,0,0,0,5,7.29,11.51,11.51,0,0,0,8.44,2.56q4.2-.56,7.26-4.75L160,224.41l.08-.12a32.37,32.37,0,0,1,4.35-4.57,30.86,30.86,0,0,1,5.72-4A31.63,31.63,0,0,1,177,213a26.09,26.09,0,0,1,7.66-.89,27.73,27.73,0,0,1,8.27,1.55A32.8,32.8,0,0,1,201.52,218.35Z"
                class="fill-text" />
            <path id="spatial-p"
                d="M298.65,109.34a37.11,37.11,0,0,1,5,10.11,31,31,0,0,1,1.43,9.53,29.61,29.61,0,0,1-1.4,8.74,35.5,35.5,0,0,1-8.39,14,36.87,36.87,0,0,1-5.53,4.7l-34.16,23.26-10.29-15.1,34.17-23.27a21,21,0,0,0,4.44-4.77,15,15,0,0,0,2.28-5.34,13.54,13.54,0,0,0,0-5.7,16.82,16.82,0,0,0-2.62-5.83l-4.66-6.86a24.5,24.5,0,0,0-4.78-4.4,15.17,15.17,0,0,0-5.3-2.34,13.87,13.87,0,0,0-5.67,0,16.14,16.14,0,0,0-5.88,2.61L223.2,131.8a7.52,7.52,0,0,0-3.52,4.7,7.42,7.42,0,0,0,1.52,5.6l42.29,62.11-15.1,10.29-42.3-62.11a25.69,25.69,0,0,1-4.61-11.33,24.11,24.11,0,0,1,.82-10.16,25.27,25.27,0,0,1,4.41-8.32,28.84,28.84,0,0,1,6.09-5.81L247,93.51A36.18,36.18,0,0,1,257,88.57a32.07,32.07,0,0,1,9.55-1.4,28.64,28.64,0,0,1,8.71,1.42,37.88,37.88,0,0,1,7.66,3.5A35.16,35.16,0,0,1,289.29,97a37.23,37.23,0,0,1,4.69,5.52Z"
                class="fill-text" />
            <path id="spatial-a"
                d="M456.76,121.77,439,126.15l-5.94-24-62.37,15.43,5.94,24L358.9,146,346.8,97a53.33,53.33,0,0,1-1.19-20.64,47.36,47.36,0,0,1,6.41-18,48.15,48.15,0,0,1,13-13.93A53.1,53.1,0,0,1,383.63,36l40-9.89a9.21,9.21,0,0,1,3.65-.18,9,9,0,0,1,3.34,1.2,9.21,9.21,0,0,1,4.16,5.71Zm-90.44-22,62.37-15.42L419.21,46,388,53.75c-.55.14-1.68.5-3.39,1.09a35.59,35.59,0,0,0-5.78,2.7,39.14,39.14,0,0,0-6.54,4.73,26.44,26.44,0,0,0-5.68,7.2,28.72,28.72,0,0,0-3.13,10,35.1,35.1,0,0,0,1.05,13.17Z"
                class="fill-text" />
            <path id="spatial-t"
                d="M592.91,46.59l-40.1-3.78L545.07,125l-18.2-1.72,7.74-82.16L494.44,37.3l1.72-18.19,98.47,9.28Z"
                class="fill-text" />
            <path id="spatial-i" d="M633.7,146.74l-17.24-6.07L650,45.59l17.24,6.07Z" class="fill-text" />
            <path id="spatial-a-2" data-name="spatial-a"
                d="M753.66,216.11,738.57,205.8l14-20.43-53-36.25-14,20.42-15.09-10.31,28.44-41.61A53.17,53.17,0,0,1,713.47,103a47.51,47.51,0,0,1,17.71-7.23,48,48,0,0,1,19.05.42,53.05,53.05,0,0,1,18.7,8.27l34,23.24a9.18,9.18,0,0,1,2.56,2.6,9,9,0,0,1,1.29,6.84,9.41,9.41,0,0,1-1.44,3.36ZM709.8,134l53.05,36.25,22.29-32.62-26.52-18.12c-.47-.32-1.49-.92-3.07-1.8a35.54,35.54,0,0,0-5.86-2.52,39.67,39.67,0,0,0-7.89-1.73,26.28,26.28,0,0,0-9.15.56,28.73,28.73,0,0,0-9.56,4.33,35.12,35.12,0,0,0-9.12,9.55Z"
                class="fill-text" />
            <path id="spatial-l"
                d="M834.58,317.81l-49.25-67.27a9.58,9.58,0,0,1-1.59-3.36,9,9,0,0,1-.16-3.5,8.83,8.83,0,0,1,1.21-3.28,9.51,9.51,0,0,1,2.54-2.73l73.9-54.11L872,198.31l-66.59,48.75,43.89,60Z"
                class="fill-text" />
        </g>
        <g id="computing">
            <path id="computing-c"
                d="M63.13,648.33,48.4,584.06a27.34,27.34,0,0,1-.64-5.45,27.65,27.65,0,0,1,.53-6,26.48,26.48,0,0,1,2-6A21.7,21.7,0,0,1,54,561a24.1,24.1,0,0,1,5.72-4.6,28.13,28.13,0,0,1,8-3.06l48.24-11.06a28,28,0,0,1,5.44-.63,27.69,27.69,0,0,1,6,.53,25.4,25.4,0,0,1,6,2,23.16,23.16,0,0,1,5.58,3.73,24.12,24.12,0,0,1,4.58,5.7,27.51,27.51,0,0,1,3.05,7.95l14.74,64.27-17.82,4.08-14.73-64.27a7.43,7.43,0,0,0-3.08-4.92,7.64,7.64,0,0,0-5.9-.59l-48.1,11A6.72,6.72,0,0,0,66.21,580L81,644.24Z"
                class="fill-text" />
            <path id="computing-o"
                d="M177.08,771a44.49,44.49,0,0,1-16,6.47,39.49,39.49,0,0,1-30.54-6.71,44.24,44.24,0,0,1-11.67-12.44l-13.34-20.85a44.47,44.47,0,0,1-6.41-15.83,39.53,39.53,0,0,1,.17-16,40.5,40.5,0,0,1,6.5-14.63,43.55,43.55,0,0,1,12.55-11.82l16.22-10.38a43.73,43.73,0,0,1,16-6.42,39.5,39.5,0,0,1,30.57,6.77,43.74,43.74,0,0,1,11.72,12.45l13.33,20.84a43.65,43.65,0,0,1,6.37,15.83,40.47,40.47,0,0,1-.19,15.94,39.72,39.72,0,0,1-6.52,14.6,44.36,44.36,0,0,1-12.53,11.77Zm6.38-25.77a26.86,26.86,0,0,0,7.33-6.74,21.64,21.64,0,0,0,3.72-8.14,21.41,21.41,0,0,0,0-9,26.26,26.26,0,0,0-3.75-9.07l-13.34-20.84a26.45,26.45,0,0,0-6.69-7.28,22,22,0,0,0-8.16-3.75,21.5,21.5,0,0,0-9-.06,26.7,26.7,0,0,0-9.19,3.83l-16.23,10.38a26.7,26.7,0,0,0-7.33,6.74,21.36,21.36,0,0,0-3.7,8.17,22,22,0,0,0,0,9,26.61,26.61,0,0,0,3.8,9.13l13.26,20.73a26.28,26.28,0,0,0,6.7,7.27,22.08,22.08,0,0,0,8.16,3.76,21.45,21.45,0,0,0,9,.06,26.7,26.7,0,0,0,9.19-3.83Z"
                class="fill-text" />
            <path id="computing-m"
                d="M282,908.13l-15-10.68,34.82-48.91L242.3,876.2a7.93,7.93,0,0,1-4.63.75,9.83,9.83,0,0,1-4.41-1.75,9.34,9.34,0,0,1-3-3.51,8.1,8.1,0,0,1-.75-4.58l6.55-65.32-34.81,48.9-14.89-10.6,53.93-75.76A9.18,9.18,0,0,1,251,761a9.7,9.7,0,0,1,2.54,1.51,9.86,9.86,0,0,1,2,2.17,8.51,8.51,0,0,1,1.17,2.65,8.34,8.34,0,0,1,.22,3l-8,83.06,75.85-34.79a8.92,8.92,0,0,1,5.84-.51,9.48,9.48,0,0,1,5,3.16,9.17,9.17,0,0,1,2,5.5,9,9,0,0,1-1.72,5.69Z"
                class="fill-text" />
            <path id="computing-p"
                d="M455.31,901.18a36.77,36.77,0,0,1-4.17,10.48,31.3,31.3,0,0,1-6.13,7.43,29.52,29.52,0,0,1-7.44,4.8,35.38,35.38,0,0,1-8,2.51,37.06,37.06,0,0,1-15.14-.4l-40.14-9.87,4.37-17.75,40.13,9.88a21.82,21.82,0,0,0,6.53.12,15.33,15.33,0,0,0,5.49-1.87,13.63,13.63,0,0,0,4.2-3.86,16.54,16.54,0,0,0,2.6-5.84l2-8a24.09,24.09,0,0,0,.08-6.5,15,15,0,0,0-1.8-5.51,13.72,13.72,0,0,0-3.77-4.22,16.09,16.09,0,0,0-5.87-2.64l-40-9.84a7.51,7.51,0,0,0-5.84.52,7.38,7.38,0,0,0-3.16,4.87l-17.95,73L343.49,934l17.95-73a25.77,25.77,0,0,1,5.35-11,24.24,24.24,0,0,1,8.11-6.19,25.35,25.35,0,0,1,9.14-2.27,28.43,28.43,0,0,1,8.38.65l40.14,9.87A36.73,36.73,0,0,1,443,856.33a32.53,32.53,0,0,1,7.42,6.17,29.08,29.08,0,0,1,4.76,7.44,37.72,37.72,0,0,1,2.51,8,34.9,34.9,0,0,1,.61,8,37.18,37.18,0,0,1-1,7.19Z"
                class="fill-text" />
            <path id="computing-u"
                d="M598.49,941.64a9.17,9.17,0,0,1-.3,3.71,8.52,8.52,0,0,1-1.64,3.11,9.31,9.31,0,0,1-6.21,3.34l-40.94,4.49a56.13,56.13,0,0,1-11.88,0,52.29,52.29,0,0,1-11.92-2.61,49.3,49.3,0,0,1-11.18-5.53,43.64,43.64,0,0,1-9.61-8.66,47.21,47.21,0,0,1-7.17-12.09,57.37,57.37,0,0,1-3.85-15.74l-5.5-50.1,18.17-2,5.5,50.1a35.11,35.11,0,0,0,3.56,12.76,28.75,28.75,0,0,0,6.39,8.28,26.07,26.07,0,0,0,7.81,4.8,39.32,39.32,0,0,0,7.77,2.19,36.87,36.87,0,0,0,6.36.54c1.81,0,3-.08,3.55-.14l31.94-3.51-9-82,18.16-2Z"
                class="fill-text" />
            <path id="computing-t"
                d="M707.86,817.55l-36.27,17.52,35.9,74.31-16.45,8L655.13,843,618.8,860.58l-7.95-16.46,89.06-43Z"
                class="fill-text" />
            <path id="computing-i" d="M799.66,847.6l-14.09,11.65-64.25-77.67,14.08-11.65Z" class="fill-text" />
            <path id="computing-n"
                d="M897.42,719.47a9,9,0,0,1,2.55,2.72,9.37,9.37,0,0,1,1.24,3.29,8.82,8.82,0,0,1-.11,3.5,9.33,9.33,0,0,1-1.5,3.33,10,10,0,0,1-2.48,2.41,7.88,7.88,0,0,1-3.44,1.32L798.17,750.2l57.93,41-10.57,14.92-75.88-53.78a8.82,8.82,0,0,1-3.24-4.24,9.9,9.9,0,0,1-.45-5.27,9.21,9.21,0,0,1,2.67-4.66,8.61,8.61,0,0,1,4.81-2.36l95.45-14.2L811,680.6l10.57-14.91Z"
                class="fill-text" />
            <path id="computing-g"
                d="M947.72,565.36a9.29,9.29,0,0,1,3.35,1.6,8.77,8.77,0,0,1,3.47,5.92,9.45,9.45,0,0,1-.25,3.72l-16.71,63.78a27,27,0,0,1-2,5.12,28.31,28.31,0,0,1-3.27,5.11,26.56,26.56,0,0,1-4.54,4.44,22.15,22.15,0,0,1-5.86,3.22,23.86,23.86,0,0,1-7.2,1.42,27.65,27.65,0,0,1-8.5-1l-47.87-12.54a27.28,27.28,0,0,1-5.12-1.95,28.31,28.31,0,0,1-5.11-3.27,25.65,25.65,0,0,1-4.43-4.57,23.33,23.33,0,0,1-3.22-5.9,24.09,24.09,0,0,1-1.42-7.17,27.48,27.48,0,0,1,1-8.46L858.89,543l17.69,4.63-18.83,71.88a7.39,7.39,0,0,0,.45,5.79,7.62,7.62,0,0,0,4.95,3.26L910.89,641a6.72,6.72,0,0,0,9-5.27l14.41-55-22.17-5.81L899.82,622,882,617.32l14.62-55.83a9.2,9.2,0,0,1,1.64-3.35,9.26,9.26,0,0,1,6-3.44,8.92,8.92,0,0,1,3.62.22Z"
                class="fill-text" />
        </g>
    </g>
</svg>