<svg id="Layer_1" data-name="Layer 1" xmlns="http://www.w3.org/2000/svg" viewBox="0 0 297 297">
 <defs>
        <style>
            #tag-cloud-button path{
                fill: #fff;
                stroke:#231f20;
                stroke-miterlimit:10;
            }</style>
            </defs>
<g id="tag-cloud-button">
    <path
        d="M225.43,103.51c-1.4,0-2.8,0-4.2.13a76.27,76.27,0,0,0-145.46,0c-1.4-.08-2.8-.13-4.2-.13a71.58,71.58,0,0,0,0,143.15H225.43a71.58,71.58,0,0,0,0-143.15Zm0,123.09H71.57a51.51,51.51,0,0,1,0-103,52.5,52.5,0,0,1,9.88,1,10,10,0,0,0,11.79-8.06,56.17,56.17,0,0,1,110.52,0,10,10,0,0,0,11.79,8.06,52.39,52.39,0,0,1,9.87-1,51.51,51.51,0,0,1,0,103Z" />
    <path
        d="M140.35,127.9a10,10,0,0,0-14.09-1.66L84.34,159.36a10,10,0,0,0,0,15.74l41.92,33.11a10,10,0,1,0,12.44-15.74l-32-25.24,32-25.24A10,10,0,0,0,140.35,127.9Z" />
    <path
        d="M212.66,159.35l-41.92-33.11A10,10,0,0,0,158.3,142l32,25.24-32,25.24a10,10,0,0,0,12.44,15.74l41.92-33.11a10,10,0,0,0,0-15.75Z" />
        </g>
    </svg>