<svg id="Layer_1" data-name="Layer 1" xmlns="http://www.w3.org/2000/svg" viewBox="0 0 160 5"><defs><style>.cls-1{fill:#3ebad5;}</style></defs><path class="cls-1" d="M154.23,1.27a3,3,0,0,1,1.23-.5,3.08,3.08,0,0,1,1.21.5,3.34,3.34,0,0,1,.52,1.23,3.06,3.06,0,0,1-.52,1.23,3,3,0,0,1-1.22.5,2.85,2.85,0,0,1-1.22-.5,2.85,2.85,0,0,1-.51-1.23,3,3,0,0,1,.51-1.23"/><path class="cls-1" d="M144.76,1.27A3,3,0,0,1,146,.77a3.19,3.19,0,0,1,1.22.5,3.32,3.32,0,0,1,.51,1.23,3,3,0,0,1-.51,1.23,3.08,3.08,0,0,1-1.23.5,2.85,2.85,0,0,1-1.22-.5,2.85,2.85,0,0,1-.51-1.23,3,3,0,0,1,.51-1.23"/><path class="cls-1" d="M135.29,1.27a3,3,0,0,1,1.23-.5,3.12,3.12,0,0,1,1.22.5,3.32,3.32,0,0,1,.51,1.23,3,3,0,0,1-.51,1.23,3,3,0,0,1-1.23.5,2.85,2.85,0,0,1-1.22-.5,2.84,2.84,0,0,1-.5-1.23,3,3,0,0,1,.5-1.23"/><path class="cls-1" d="M125.82,1.27a3,3,0,0,1,1.23-.5,3.06,3.06,0,0,1,1.22.5,3.32,3.32,0,0,1,.51,1.23,3,3,0,0,1-.51,1.23,3,3,0,0,1-1.22.5,2.84,2.84,0,0,1-1.23-.5,2.84,2.84,0,0,1-.5-1.23,3,3,0,0,1,.5-1.23"/><path class="cls-1" d="M116.35,1.27a1.75,1.75,0,0,1,2.45,0,3.34,3.34,0,0,1,.52,1.23,3.06,3.06,0,0,1-.52,1.23,3,3,0,0,1-1.22.5,2.89,2.89,0,0,1-1.23-.5,2.84,2.84,0,0,1-.5-1.23,3,3,0,0,1,.5-1.23"/><path class="cls-1" d="M106.89,1.27a3,3,0,0,1,1.23-.5,3.08,3.08,0,0,1,1.21.5,3.34,3.34,0,0,1,.52,1.23,3.06,3.06,0,0,1-.52,1.23,3,3,0,0,1-1.22.5,2.85,2.85,0,0,1-1.22-.5,2.85,2.85,0,0,1-.51-1.23,3,3,0,0,1,.51-1.23"/><path class="cls-1" d="M97.42,1.27a3,3,0,0,1,1.23-.5,3.19,3.19,0,0,1,1.22.5,3.32,3.32,0,0,1,.51,1.23,3,3,0,0,1-.51,1.23,3.08,3.08,0,0,1-1.23.5,2.85,2.85,0,0,1-1.22-.5,2.85,2.85,0,0,1-.51-1.23,3,3,0,0,1,.51-1.23"/><path class="cls-1" d="M88,1.27a3,3,0,0,1,1.23-.5,3.12,3.12,0,0,1,1.22.5,3.32,3.32,0,0,1,.51,1.23,3,3,0,0,1-.51,1.23,3,3,0,0,1-1.23.5A2.85,2.85,0,0,1,88,3.73a2.84,2.84,0,0,1-.5-1.23A3,3,0,0,1,88,1.27"/><path class="cls-1" d="M78.48,1.27a3,3,0,0,1,1.23-.5,3.06,3.06,0,0,1,1.22.5,3.32,3.32,0,0,1,.51,1.23,3,3,0,0,1-.51,1.23,3,3,0,0,1-1.22.5,2.84,2.84,0,0,1-1.23-.5A2.84,2.84,0,0,1,78,2.5a3,3,0,0,1,.5-1.23"/><path class="cls-1" d="M69,1.27a3.06,3.06,0,0,1,1.24-.5,3.08,3.08,0,0,1,1.21.5A3.34,3.34,0,0,1,72,2.5a3.06,3.06,0,0,1-.52,1.23,3,3,0,0,1-1.22.5A2.89,2.89,0,0,1,69,3.73a2.84,2.84,0,0,1-.5-1.23A3,3,0,0,1,69,1.27"/><path class="cls-1" d="M59.55,1.27a3,3,0,0,1,1.23-.5,3.08,3.08,0,0,1,1.21.5,3.34,3.34,0,0,1,.52,1.23A3.06,3.06,0,0,1,62,3.73a3,3,0,0,1-1.22.5,2.85,2.85,0,0,1-1.22-.5A2.85,2.85,0,0,1,59,2.5a3,3,0,0,1,.51-1.23"/><path class="cls-1" d="M50.08,1.27a3,3,0,0,1,1.23-.5,3.19,3.19,0,0,1,1.22.5A3.32,3.32,0,0,1,53,2.5a3,3,0,0,1-.51,1.23,3.08,3.08,0,0,1-1.23.5,2.85,2.85,0,0,1-1.22-.5,2.85,2.85,0,0,1-.51-1.23,3,3,0,0,1,.51-1.23"/><path class="cls-1" d="M40.61,1.27a3,3,0,0,1,1.23-.5,3.12,3.12,0,0,1,1.22.5,3.32,3.32,0,0,1,.51,1.23,3,3,0,0,1-.51,1.23,3,3,0,0,1-1.23.5,2.85,2.85,0,0,1-1.22-.5,2.84,2.84,0,0,1-.5-1.23,3,3,0,0,1,.5-1.23"/><path class="cls-1" d="M31.14,1.27a3,3,0,0,1,1.23-.5,3.06,3.06,0,0,1,1.22.5A3.32,3.32,0,0,1,34.1,2.5a3,3,0,0,1-.51,1.23,3,3,0,0,1-1.22.5,2.84,2.84,0,0,1-1.23-.5,2.84,2.84,0,0,1-.5-1.23,3,3,0,0,1,.5-1.23"/><path class="cls-1" d="M21.67,1.27a3.06,3.06,0,0,1,1.24-.5,3.08,3.08,0,0,1,1.21.5,3.34,3.34,0,0,1,.52,1.23,3.06,3.06,0,0,1-.52,1.23,3,3,0,0,1-1.22.5,2.89,2.89,0,0,1-1.23-.5,2.84,2.84,0,0,1-.5-1.23,3,3,0,0,1,.5-1.23"/><path class="cls-1" d="M12.21,1.27a3,3,0,0,1,1.23-.5,3.08,3.08,0,0,1,1.21.5,3.34,3.34,0,0,1,.52,1.23,3.06,3.06,0,0,1-.52,1.23,3,3,0,0,1-1.22.5,2.85,2.85,0,0,1-1.22-.5A2.85,2.85,0,0,1,11.7,2.5a3,3,0,0,1,.51-1.23"/><path class="cls-1" d="M2.74,1.27A3,3,0,0,1,4,.77a3.19,3.19,0,0,1,1.22.5A3.32,3.32,0,0,1,5.7,2.5a3,3,0,0,1-.51,1.23A3.08,3.08,0,0,1,4,4.23a2.85,2.85,0,0,1-1.22-.5A2.85,2.85,0,0,1,2.23,2.5a3,3,0,0,1,.51-1.23"/></svg>