 <svg id="Layer_1" data-name="Layer 1" xmlns="http://www.w3.org/2000/svg" viewBox="0 0 200 20"><defs><style>.cls-1{fill:#3cbbd6;}</style></defs><path class="cls-1" d="M39.91,13.53l1.15-1.93h2.13L41,15.16l2.49,3.89h-2L40,16.74l-1.44,2.31h-2l2.45-3.94L36.67,11.6h2Z"/><path class="cls-1" d="M44.48,19.05V11.6h2.79A2.27,2.27,0,0,1,49.66,14a2.21,2.21,0,0,1-1.52,2.2L50,19.05H48L46.3,16.3v2.75Zm2.62-4.36a.67.67,0,0,0,.75-.74.71.71,0,0,0-.75-.75h-.8v1.49Z"/><path class="cls-1" d="M54.93,18.09a3.74,3.74,0,0,0,2.51-1v1.23a3.88,3.88,0,0,1-2.51.8,3.77,3.77,0,0,1-3.82-3.81,3.72,3.72,0,0,1,3.82-3.8,3.81,3.81,0,0,1,2.51.76v1.17a3.85,3.85,0,0,0-2.51-.9,2.76,2.76,0,0,0,0,5.51Z"/><path class="cls-1" d="M62.52,19.16a3.82,3.82,0,1,1,3.83-3.82A3.77,3.77,0,0,1,62.52,19.16Zm2.76-3.82a2.76,2.76,0,1,0-2.76,2.75A2.7,2.7,0,0,0,65.28,15.34Z"/><path class="cls-1" d="M70.77,18v1.06H67.71V11.6h1.06V18Z"/><path class="cls-1" d="M75.13,18v1.06H72.07V11.6h1.06V18Z"/><path class="cls-1" d="M79.64,11.6l2.81,7.45H81.33l-.54-1.5h-3l-.58,1.5H76.17L79,11.6Zm-1.45,5h2.23l-1.11-3Z"/><path class="cls-1" d="M86.57,14.91a2,2,0,0,1,1.76,2A2.08,2.08,0,0,1,86,19.05H83.64V11.6h1.57a2,2,0,0,1,2.17,1.89A1.39,1.39,0,0,1,86.57,14.91Zm-1.34-.27a1,1,0,0,0,1-1.05.91.91,0,0,0-1-.92h-.52v2ZM85.86,18c.71,0,1.36-.35,1.36-1.15s-.61-1.14-1.36-1.14H84.71V18Z"/><path class="cls-1" d="M93.31,19.16a3.82,3.82,0,1,1,3.84-3.82A3.77,3.77,0,0,1,93.31,19.16Zm2.77-3.82a2.76,2.76,0,1,0-2.77,2.75A2.7,2.7,0,0,0,96.08,15.34Z"/><path class="cls-1" d="M100.77,15.58,103,19.05h-1.26l-2.15-3.38v3.38H98.51V11.6h2.12a2,2,0,0,1,2,2.05A1.91,1.91,0,0,1,100.77,15.58Zm-.15-2.91h-1v1.94h1a.92.92,0,0,0,.93-1A.94.94,0,0,0,100.62,12.67Z"/><path class="cls-1" d="M107.26,11.6l2.81,7.45H109l-.54-1.5h-3l-.58,1.5h-1.08l2.8-7.45Zm-1.45,5H108l-1.11-3Z"/><path class="cls-1" d="M115.12,12.67h-1.53v6.38h-1.06V12.67H111V11.6h4.15Z"/><path class="cls-1" d="M116.38,19.05V11.6h1.07v7.45Z"/><path class="cls-1" d="M122.69,19.16a3.82,3.82,0,1,1,3.83-3.82A3.77,3.77,0,0,1,122.69,19.16Zm2.76-3.82a2.76,2.76,0,1,0-2.76,2.75A2.7,2.7,0,0,0,125.45,15.34Z"/><path class="cls-1" d="M132.81,11.6h1.07v7.45h-1l-3.9-5.58v5.58h-1.06V11.6h1l3.89,5.57Z"/><path class="cls-1" d="M136,19.16a.63.63,0,1,1,.62-.63A.63.63,0,0,1,136,19.16Z"/><path class="cls-1" d="M141.8,18.09a3.74,3.74,0,0,0,2.51-1v1.23a3.86,3.86,0,0,1-2.51.8A3.77,3.77,0,0,1,138,15.35a3.71,3.71,0,0,1,3.81-3.8,3.81,3.81,0,0,1,2.51.76v1.17a3.85,3.85,0,0,0-2.51-.9,2.76,2.76,0,0,0,0,5.51Z"/><path class="cls-1" d="M149.39,19.16a3.82,3.82,0,1,1,3.83-3.82A3.77,3.77,0,0,1,149.39,19.16Zm2.76-3.82a2.76,2.76,0,1,0-2.76,2.75A2.7,2.7,0,0,0,152.15,15.34Z"/><path class="cls-1" d="M158.87,19.05h-.47l-1.87-5-1.29,5h-1.1l1.93-7.45h.66l1.91,5.06,1.89-5.06h.67l1.93,7.45H162l-1.28-5Z"/><path class="cls-1" d="M174.27,1.07a3,3,0,0,1,1.23-.5,3.06,3.06,0,0,1,1.22.5,3.32,3.32,0,0,1,.51,1.23,3,3,0,0,1-.51,1.23,3,3,0,0,1-1.22.5,2.84,2.84,0,0,1-1.23-.5,2.84,2.84,0,0,1-.5-1.23,3,3,0,0,1,.5-1.23"/><path class="cls-1" d="M164.8,1.07A3,3,0,0,1,166,.57a3.08,3.08,0,0,1,1.21.5,3.32,3.32,0,0,1,.51,1.23,3,3,0,0,1-.51,1.23A3,3,0,0,1,166,4a2.84,2.84,0,0,1-1.23-.5,2.84,2.84,0,0,1-.5-1.23,3,3,0,0,1,.5-1.23"/><path class="cls-1" d="M155.33,1.07a1.75,1.75,0,0,1,2.45,0,3.34,3.34,0,0,1,.52,1.23,3.06,3.06,0,0,1-.52,1.23,3,3,0,0,1-1.22.5,2.94,2.94,0,0,1-1.23-.5,3,3,0,0,1-.5-1.23,3.14,3.14,0,0,1,.5-1.23"/><path class="cls-1" d="M145.87,1.07a3,3,0,0,1,1.23-.5,3.08,3.08,0,0,1,1.21.5,3.34,3.34,0,0,1,.52,1.23,3.06,3.06,0,0,1-.52,1.23,3,3,0,0,1-1.22.5,2.85,2.85,0,0,1-1.22-.5,2.85,2.85,0,0,1-.51-1.23,3,3,0,0,1,.51-1.23"/><path class="cls-1" d="M136.4,1.07a3,3,0,0,1,1.23-.5,3.12,3.12,0,0,1,1.22.5,3.32,3.32,0,0,1,.51,1.23,3,3,0,0,1-.51,1.23,3,3,0,0,1-1.23.5,2.85,2.85,0,0,1-1.22-.5,2.85,2.85,0,0,1-.51-1.23,3,3,0,0,1,.51-1.23"/><path class="cls-1" d="M126.93,1.07a3,3,0,0,1,1.23-.5,3.06,3.06,0,0,1,1.22.5,3.32,3.32,0,0,1,.51,1.23,3,3,0,0,1-.51,1.23,3,3,0,0,1-1.22.5,2.84,2.84,0,0,1-1.23-.5,2.84,2.84,0,0,1-.5-1.23,3,3,0,0,1,.5-1.23"/><path class="cls-1" d="M117.46,1.07a3,3,0,0,1,1.24-.5,3.08,3.08,0,0,1,1.21.5,3.32,3.32,0,0,1,.51,1.23,3,3,0,0,1-.51,1.23,3,3,0,0,1-1.22.5,2.84,2.84,0,0,1-1.23-.5A2.84,2.84,0,0,1,117,2.3a3,3,0,0,1,.5-1.23"/><path class="cls-1" d="M108,1.07a1.75,1.75,0,0,1,2.45,0A3.34,3.34,0,0,1,111,2.3a3.06,3.06,0,0,1-.52,1.23,3,3,0,0,1-1.22.5,2.94,2.94,0,0,1-1.23-.5,3,3,0,0,1-.5-1.23,3.14,3.14,0,0,1,.5-1.23"/><path class="cls-1" d="M98.53,1.07a3,3,0,0,1,1.23-.5,3.08,3.08,0,0,1,1.21.5,3.34,3.34,0,0,1,.52,1.23A3.06,3.06,0,0,1,101,3.53a3,3,0,0,1-1.22.5,2.85,2.85,0,0,1-1.22-.5A2.85,2.85,0,0,1,98,2.3a3,3,0,0,1,.51-1.23"/><path class="cls-1" d="M89.06,1.07a3,3,0,0,1,1.23-.5,3.12,3.12,0,0,1,1.22.5A3.32,3.32,0,0,1,92,2.3a3,3,0,0,1-.51,1.23,3,3,0,0,1-1.23.5,2.85,2.85,0,0,1-1.22-.5,2.85,2.85,0,0,1-.51-1.23,3,3,0,0,1,.51-1.23"/><path class="cls-1" d="M79.59,1.07a3,3,0,0,1,1.23-.5,3.06,3.06,0,0,1,1.22.5,3.32,3.32,0,0,1,.51,1.23A3,3,0,0,1,82,3.53a3,3,0,0,1-1.22.5,2.84,2.84,0,0,1-1.23-.5,2.84,2.84,0,0,1-.5-1.23,3,3,0,0,1,.5-1.23"/><path class="cls-1" d="M70.12,1.07a3,3,0,0,1,1.24-.5,3.08,3.08,0,0,1,1.21.5,3.32,3.32,0,0,1,.51,1.23,3,3,0,0,1-.51,1.23,3,3,0,0,1-1.22.5,2.84,2.84,0,0,1-1.23-.5,2.84,2.84,0,0,1-.5-1.23,3,3,0,0,1,.5-1.23"/><path class="cls-1" d="M60.65,1.07a3.06,3.06,0,0,1,1.24-.5,3.08,3.08,0,0,1,1.21.5,3.34,3.34,0,0,1,.52,1.23,3.06,3.06,0,0,1-.52,1.23,3,3,0,0,1-1.22.5,2.94,2.94,0,0,1-1.23-.5,3,3,0,0,1-.5-1.23,3.14,3.14,0,0,1,.5-1.23"/><path class="cls-1" d="M51.19,1.07a3,3,0,0,1,1.23-.5,3.08,3.08,0,0,1,1.21.5,3.18,3.18,0,0,1,.52,1.23,2.92,2.92,0,0,1-.52,1.23,3,3,0,0,1-1.22.5,2.85,2.85,0,0,1-1.22-.5,2.85,2.85,0,0,1-.51-1.23,3,3,0,0,1,.51-1.23"/><path class="cls-1" d="M41.72,1.07A3,3,0,0,1,43,.57a3.12,3.12,0,0,1,1.22.5,3.32,3.32,0,0,1,.51,1.23,3,3,0,0,1-.51,1.23,3,3,0,0,1-1.23.5,2.85,2.85,0,0,1-1.22-.5,2.85,2.85,0,0,1-.51-1.23,3,3,0,0,1,.51-1.23"/><path class="cls-1" d="M32.25,1.07a3,3,0,0,1,1.23-.5,3.06,3.06,0,0,1,1.22.5,3.32,3.32,0,0,1,.51,1.23,3,3,0,0,1-.51,1.23,3,3,0,0,1-1.22.5,2.84,2.84,0,0,1-1.23-.5,2.84,2.84,0,0,1-.5-1.23,3,3,0,0,1,.5-1.23"/><path class="cls-1" d="M22.78,1.07A3,3,0,0,1,24,.57a3.08,3.08,0,0,1,1.21.5,3.32,3.32,0,0,1,.51,1.23,3,3,0,0,1-.51,1.23A3,3,0,0,1,24,4a2.84,2.84,0,0,1-1.23-.5,2.84,2.84,0,0,1-.5-1.23,3,3,0,0,1,.5-1.23"/></svg>